<svg xmlns="http://www.w3.org/2000/svg" width="250" height="250" viewBox="0 0 250 250" fill="none">
  <style>
    @keyframes draw {
      0% { stroke-dashoffset: var(--len); }
      100% { stroke-dashoffset: 0; }
    }
    path {
      stroke-dasharray: 3 6;
      mask: url(#m);
    }
    .reveal {
      stroke-dasharray: var(--len);
      stroke-dashoffset: var(--len);
      animation: draw var(--dur) ease forwards;
      animation-delay: var(--del, 0s);
    }
  </style>
  <defs>
    <mask id="m">
      <g stroke="white" stroke-width="3" fill="none">
        <path class="reveal" style="--len:800;--dur:2.5s;--del:0s" d="M129.74 72.42c-1.33 4.73-2.68 10.41-4.72 14.2-2.36 4.52-8.11 6.47-13.73 6.83-4.57.29-11.21-.3-16.13 4.22s-11.67 15.31-15.94 16.9c-3.01 1.1-5.26 1.55-7.13 1.14s-11.13-5.58-14.01-7.59c-2.87-2.01-6.57-3-7.03-6.27-.47-3.27.06-9.49 1.99-12.99s14.2-20.95 16.77-24.1 6.1-11.03 5.28-14.65-.82-5.27 2.06-9.45c2.87-4.18 10.06-10.75 12.05-13.9 1.51-2.63.92-14.35.28-19.76l10.42 4.29.35-1.2c3.93-1.04 13.54-3.05 21.08-3.05 9.38 0 17.94.87 25.01 3.62s15.69 8.1 21.91 16.1c6.23 8 10.68 14.68 11.56 24.47s1.81 15.95-.88 25.92c-2.69 9.96-3.74 20.58-2.41 28.26s4.69 15.42 7.38 20.65 3.16 7.53 0 12.05c-3.15 4.52-13.83 19.03-17.82 24.61-2.99 4.24-19.04 12.03-26.81 16.69l-18.93 9.21-.76-.23-28.93-17.1c-3.81-2.07-9.04-6.47-11.43-13.27-1.16-3.5-6.08-7.73-9-6.4-2.93 1.33-10.06 5.52-11.27 8.79-1.22 3.27-1.81 8.33-1.81 9.71"/>
        <path class="reveal" style="--len:100;--dur:1s;--del:0.3s" d="M100.02 19.93c-1.56-3.15-5.2-9.43-8.84-10.88M52.92 92.36l13.79 4.85 1.21 5.92m41.79-48.17-8.62 6.06-1.81 5.01 3.64-.59 7.71-5.29 2.69-7.17z"/>
        <path class="reveal" style="--len:200;--dur:1.5s;--del:0.5s" d="M115.95 41.5c-3.21-2.36-8.69-7.59-7.36-11.36s2.7-12.44 3.92-16.21c3.44-1.75 13.17-2.22 20.3-1.52 7.12.7 14.25 1.75 21.38 6.21 7.12 4.45 16.32 13.43 20.23 22.88 3.27 7.88 3.84 12.78 3.84 14.59"/>
        <path class="reveal" style="--len:300;--dur:2s;--del:0.7s" d="M116.41 18.5c3.81 4.46 11.41 12.34 15.05 12.34 4.57 0 14.82 1.59 20.99 5.42 6.17 3.82 12.69 10.92 14.99 21.12 2.3 10.19 0 23.35-1.39 32.74s-2.44 17.07 0 26c2.44 8.92 5.13 17.53 9.03 20.04 2.77 1.72 5.64-2.45 6.8-5.04"/>
        <path class="reveal" style="--len:150;--dur:1.2s;--del:0.6s" d="M112.06 44.14c-4.44 2.81-13.63 9.29-17.83 16.01-5.29 8.61-11.52 18-16.2 24.06-3.81 4.95-9.42 12.05-10.74 14.06"/>
        <path class="reveal" style="--len:250;--dur:1.8s;--del:0.8s" d="M126.47 89.09c0 6.82-2.82 19.69-8.81 32.65-5.99 12.97-16.72 36.11-19.35 48.09m9.59-74.46c-.69 5.46-4.11 15.54-12.74 26.37-8.62 10.84-15.02 23.81-17.42 29.65"/>
        <path class="reveal" style="--len:600;--dur:2.5s;--del:1.0s" d="m178.64 150.93 11.07 7.68c1.93 1.33 2.33 5.34 1.7 7.7l-.7 2.75 1.99 8.06c.63 2.69-.46 6.82-3.79 9.31L136.2 215.8c-3.64 2.19-10.17 2.95-15.15 2.36-3.55-.43-5.3-.6-8.99-2.53L59.7 186.32c-2.51-1.39-2.68-5.4-1.8-8.09l.88-8.11-14.45 7-4.32 5.17v16.23l1.33 2.49 70.06 41.71 3.7 1.19h13.79l6.64-2.13 72.26-42.07 1.33-2.75v-13.78l-2.3-5.47-12.39-8.05"/>
        <path class="reveal" style="--len:300;--dur:1.8s;--del:1.3s" d="m41.4 187.41 70.72 38.91 4.97.99h12.03l7.13-2.75 72.49-38.24"/>
        <path class="reveal" style="--len:250;--dur:1.5s;--del:1.2s" d="m58.19 168.74 54.04 31.32 4.69.66h11.49l5.7-2.43 57.01-30.82"/>
      </g>
    </mask>
  </defs>
  <path d="M129.74 72.42c-1.33 4.73-2.68 10.41-4.72 14.2-2.36 4.52-8.11 6.47-13.73 6.83-4.57.29-11.21-.3-16.13 4.22s-11.67 15.31-15.94 16.9c-3.01 1.1-5.26 1.55-7.13 1.14s-11.13-5.58-14.01-7.59c-2.87-2.01-6.57-3-7.03-6.27-.47-3.27.06-9.49 1.99-12.99s14.2-20.95 16.77-24.1 6.1-11.03 5.28-14.65-.82-5.27 2.06-9.45c2.87-4.18 10.06-10.75 12.05-13.9 1.51-2.63.92-14.35.28-19.76l10.42 4.29.35-1.2c3.93-1.04 13.54-3.05 21.08-3.05 9.38 0 17.94.87 25.01 3.62s15.69 8.1 21.91 16.1c6.23 8 10.68 14.68 11.56 24.47s1.81 15.95-.88 25.92c-2.69 9.96-3.74 20.58-2.41 28.26s4.69 15.42 7.38 20.65 3.16 7.53 0 12.05c-3.15 4.52-13.83 19.03-17.82 24.61-2.99 4.24-19.04 12.03-26.81 16.69l-18.93 9.21-.76-.23-28.93-17.1c-3.81-2.07-9.04-6.47-11.43-13.27-1.16-3.5-6.08-7.73-9-6.4-2.93 1.33-10.06 5.52-11.27 8.79-1.22 3.27-1.81 8.33-1.81 9.71" stroke="#218654" stroke-width="1" stroke-linecap="square" stroke-linejoin="round" stroke-dasharray="3 6"/>
  <path d="M100.02 19.93c-1.56-3.15-5.2-9.43-8.84-10.88M52.92 92.36l13.79 4.85 1.21 5.92m41.79-48.17-8.62 6.06-1.81 5.01 3.64-.59 7.71-5.29 2.69-7.17z" stroke="#218654" stroke-width="1" stroke-linecap="square" stroke-linejoin="round" stroke-dasharray="3 6"/>
  <path d="M115.95 41.5c-3.21-2.36-8.69-7.59-7.36-11.36s2.7-12.44 3.92-16.21c3.44-1.75 13.17-2.22 20.3-1.52 7.12.7 14.25 1.75 21.38 6.21 7.12 4.45 16.32 13.43 20.23 22.88 3.27 7.88 3.84 12.78 3.84 14.59" stroke="#218654" stroke-width="1" stroke-linecap="square" stroke-linejoin="round" stroke-dasharray="3 6"/>
  <path d="M116.41 18.5c3.81 4.46 11.41 12.34 15.05 12.34 4.57 0 14.82 1.59 20.99 5.42 6.17 3.82 12.69 10.92 14.99 21.12 2.3 10.19 0 23.35-1.39 32.74s-2.44 17.07 0 26c2.44 8.92 5.13 17.53 9.03 20.04 2.77 1.72 5.64-2.45 6.8-5.04" stroke="#218654" stroke-width="1" stroke-linecap="square" stroke-linejoin="round" stroke-dasharray="3 6"/>
  <path d="M112.06 44.14c-4.44 2.81-13.63 9.29-17.83 16.01-5.29 8.61-11.52 18-16.2 24.06-3.81 4.95-9.42 12.05-10.74 14.06" stroke="#218654" stroke-width="1" stroke-linecap="square" stroke-linejoin="round" stroke-dasharray="3 6"/>
  <path d="M126.47 89.09c0 6.82-2.82 19.69-8.81 32.65-5.99 12.97-16.72 36.11-19.35 48.09m9.59-74.46c-.69 5.46-4.11 15.54-12.74 26.37-8.62 10.84-15.02 23.81-17.42 29.65" stroke="#218654" stroke-width="1" stroke-linecap="square" stroke-linejoin="round" stroke-dasharray="3 6"/>
  <path d="m178.64 150.93 11.07 7.68c1.93 1.33 2.33 5.34 1.7 7.7l-.7 2.75 1.99 8.06c.63 2.69-.46 6.82-3.79 9.31L136.2 215.8c-3.64 2.19-10.17 2.95-15.15 2.36-3.55-.43-5.3-.6-8.99-2.53L59.7 186.32c-2.51-1.39-2.68-5.4-1.8-8.09l.88-8.11-14.45 7-4.32 5.17v16.23l1.33 2.49 70.06 41.71 3.7 1.19h13.79l6.64-2.13 72.26-42.07 1.33-2.75v-13.78l-2.3-5.47-12.39-8.05" stroke="#218654" stroke-width="1" stroke-linecap="square" stroke-linejoin="round" stroke-dasharray="3 6"/>
  <path d="m41.4 187.41 70.72 38.91 4.97.99h12.03l7.13-2.75 72.49-38.24" stroke="#218654" stroke-width="1" stroke-linecap="square" stroke-linejoin="round" stroke-dasharray="3 6"/>
  <path d="m58.19 168.74 54.04 31.32 4.69.66h11.49l5.7-2.43 57.01-30.82" stroke="#218654" stroke-width="1" stroke-linecap="square" stroke-linejoin="round" stroke-dasharray="3 6"/>
</svg>
